<?xml version="1.0" encoding="utf-8"?>
<!-- Generator: Adobe Illustrator 27.2.0, SVG Export Plug-In . SVG Version: 6.00 Build 0)  -->
<svg version="1.1" xmlns="http://www.w3.org/2000/svg" xmlns:xlink="http://www.w3.org/1999/xlink" x="0px" y="0px"
	 viewBox="0 0 2350 2314.8" style="enable-background:new 0 0 2350 2314.8;" xml:space="preserve">
<style type="text/css">
	.st0{display:none;}
	.st1{display:inline;}
	.st2{fill:#FFFFFF;}
</style>
<g id="Layer_1" class="st0">
	<rect x="-23.7" class="st1" width="2382.1" height="2311.2"/>
</g>
<g id="Layer_4">
</g>
<g id="Layer_2" class="st0">
	<g id="hWq84S.tif" class="st1">
		
			<image style="overflow:visible;" width="1618" height="2048" id="Layer_0_00000088091461695359133640000015390966262145755071_" xlink:href="EE3FACA8C497D012.png"  transform="matrix(0.7341 0 0 0.7341 650.0325 193.2975)">
		</image>
	</g>
</g>
<g id="Layer_3">
</g>
<g id="Layer_5">
	<path class="st2" d="M1180.7,0C528.9-3.1,0,523.9,0,1175c0,552.2,378.9,1010.5,890.1,1139.7c0,0,0,0,0,0
		c-5.9-14.7-8.8-35.3-8.8-55.8v-199.8c0,0,0,0,0,0H734.4c-79.3,0-152.8-35.2-185.1-99.9c-38.2-70.5-44.1-179.2-141-246.8
		c0,0,0,0,0,0c-29.4-23.5-5.9-47,26.4-44.1c0,0,0,0,0,0c61.7,17.6,111.6,58.8,158.6,120.4c47,61.7,67.6,76.4,155.7,76.4
		c41.1,0,105.7-2.9,164.5-11.8c0,0,0,0,0,0c28.7-73.1,76-139.2,133.6-177.7c0,0,0,0,0,0c-81.8-29.2-220.7-87.8-297.2-170.2
		c-11-11.8,2-30.3,16.9-24.1c24.1,10.1,48,18.2,50.4,12c5.1-12.8-174.4-225.6-164.1-310.3c9.9-81.6-32.7-122.6,115.9-341.5
		c6.7-9.9,22-7.5,25.3,4c19,66,69.2,216.1,117.7,155.4c0,0,0,0,0,0c0,0,42-15.7,52.3-126.7c7.8-83.9,27.1-166.4,57.5-244.9
		c17.3-44.5,35.9-87,51.8-110.4c0,0,0,0,0,0h0.6c5.7,0,11.2,1,16.6,2.9c17.1,6.2,62.4,15.3,93.1-44c31-59.9,15.4-208,8.1-263.3
		c-1.3-10.2,8.7-18.2,18.4-14.5c47.6,17.9,170.7,79.3,328.3,272.5c47.8,58.6,74.7,130.5,84.2,205.6c7.7,60.6,9.1,131.8-13.3,187
		c-0.6,1.5,13.9,60.2,59,56.4c0,0,0,0,0,0c0,0,57.9,11.1,65.8-80.7c0.7-8.1,11.1-11.1,16-4.5c25.7,35.1,112.6,170.9,107.8,343.6
		c-0.1,4-0.1,7.9,0.1,11.9c0.5,17.3,10.4,142.5-202.4,296.4c0,0,0,0,0,0c0,0-8.9,28.8,45.6,24.6c4.1-0.3,6.2,4.8,3.1,7.5
		c-33.8,28.5-147.6,116.6-298.8,151.2c0,0,0,0,0,0c95.2,65.5,160.1,208.6,160.1,316.9V2256c0,8.8-2.9,17.6-2.9,26.4c0,0,0,0,0,0
		c457.8-158.5,786.7-592.6,787.2-1106.1C2350.7,530,1827,3.1,1180.7,0z M722.4,798.4C722.4,798.4,722.4,798.4,722.4,798.4
		c0-0.1-7.5-127.7,46.2-151.3c64.1-28.2,61.5-123.1,61.5-123.1c0,0,0,0,0,0c17.3,1,24.5,23.2,26.8,50.6
		c4.9,59.1-18.5,117.1-62.2,157.2L722.4,798.4z"/>
</g>
</svg>
